<svg xmlns="http://www.w3.org/2000/svg" width="440" height="300" viewBox="0 0 440 300">
<style>.s{fill:none;stroke-linecap:round;stroke-linejoin:round;stroke-dasharray:1 1.02;stroke-dashoffset:1.01;animation:d linear forwards}@keyframes d{to{stroke-dashoffset:0}}.f{opacity:0;transform-box:fill-box;transform-origin:center;animation:p .24s cubic-bezier(.34,1.56,.64,1) forwards}@keyframes p{from{opacity:0;transform:scale(.2)}to{opacity:1;transform:scale(1)}}@media (prefers-reduced-motion:reduce){.s{animation:none;stroke-dashoffset:0}.f{animation:none;opacity:1}}</style>
<path class="s" pathLength="1" style="animation-duration:0.08s;animation-delay:0.00s" d="M90.0,120.0 L91.3,119.0 L92.5,118.0 L93.7,117.0 L94.9,115.9 L96.1,114.9 L97.4,113.8 L98.6,112.8 L99.9,111.8 L101.1,110.8 L102.4,109.9 L103.7,109.0 L105.1,108.1 L106.4,107.2 L107.7,106.3 L109.0,105.4 L110.3,104.4 L111.6,103.5 L112.9,102.5 L114.1,101.4 L115.3,100.4 L116.5,99.3 L117.6,98.1 L118.7,97.0 L119.8,95.8" stroke="#171C12" stroke-width="13"/>
<path class="s" pathLength="1" style="animation-duration:0.08s;animation-delay:0.07s" d="M300.3,69.6 L301.5,70.7 L302.7,71.8 L303.8,72.9 L305.0,74.0 L306.2,75.1 L307.3,76.2 L308.5,77.3 L309.7,78.3 L311.0,79.4 L312.2,80.4 L313.5,81.3 L314.8,82.3 L316.0,83.3 L317.3,84.2 L318.7,85.1 L320.0,86.1 L321.3,87.0 L322.6,87.9 L323.9,88.9 L325.1,89.8 L326.4,90.8 L327.7,91.8 L328.9,92.8 L330.2,93.8" stroke="#171C12" stroke-width="13"/>
<path class="s" pathLength="1" style="animation-duration:0.08s;animation-delay:0.14s" d="M350.0,149.9 L351.7,150.0 L353.3,150.0 L355.0,150.0 L356.7,150.0 L358.3,150.0 L360.0,149.9 L361.7,149.9 L363.3,149.9 L365.0,149.9 L366.7,150.0 L368.3,150.0 L370.0,150.1 L371.7,150.2 L373.3,150.3 L375.0,150.3 L376.7,150.3 L378.3,150.3 L380.0,150.2 L381.7,150.1 L383.3,150.0 L385.0,150.0 L386.7,149.9 L388.3,149.9 L390.0,149.9" stroke="#171C12" stroke-width="13"/>
<path class="s" pathLength="1" style="animation-duration:0.28s;animation-delay:0.21s" d="M150.1,160.1 L151.7,158.0 L153.2,156.3 L154.7,154.9 L156.2,153.8 L157.6,152.9 L159.1,152.3 L160.6,151.9 L162.0,151.7 L163.5,151.7 L164.9,151.9 L166.4,152.3 L167.9,152.8 L169.3,153.4 L170.8,154.2 L172.3,155.1 L173.8,156.0 L175.3,157.0 L176.8,158.1 L178.3,159.2 L179.8,160.3 L181.3,161.4 L182.8,162.5 L184.3,163.6 L185.8,164.6 L187.4,165.5 L188.9,166.4 L190.4,167.1 L191.9,167.8 L193.4,168.3 L195.0,168.7 L196.5,168.8 L198.0,168.8 L199.5,168.6 L201.1,168.2 L202.6,167.5 L204.1,166.6 L205.6,165.4 L207.1,164.0 L208.6,162.2 L210.1,160.1 L211.6,158.0 L213.1,156.3 L214.6,154.8 L216.1,153.7 L217.6,152.8 L219.1,152.1 L220.5,151.7 L222.0,151.5 L223.5,151.6 L225.0,151.8 L226.4,152.1 L227.9,152.6 L229.4,153.3 L230.9,154.0 L232.4,154.9 L233.9,155.9 L235.4,156.9 L236.9,157.9 L238.4,159.1 L239.9,160.2 L241.4,161.3 L242.9,162.4 L244.4,163.4 L245.9,164.5 L247.4,165.4 L248.9,166.3 L250.5,167.0 L252.0,167.6 L253.5,168.1 L255.0,168.5 L256.5,168.6 L258.0,168.6 L259.5,168.4 L261.0,168.0 L262.4,167.3 L263.9,166.4 L265.4,165.2 L266.8,163.7 L268.3,161.9 L269.7,159.8" stroke="#171C12" stroke-width="13"/>
<path class="s" pathLength="1" style="animation-duration:0.19s;animation-delay:0.47s" d="M77.9,190.0 L77.9,191.2 L77.8,192.3 L77.6,193.5 L77.4,194.7 L77.1,195.8 L76.7,196.9 L76.2,198.0 L75.7,199.0 L75.1,200.1 L74.4,201.0 L73.6,202.0 L72.8,202.8 L72.0,203.7 L71.1,204.5 L70.1,205.2 L69.1,205.8 L68.1,206.4 L67.0,206.9 L65.9,207.3 L64.7,207.7 L63.6,208.0 L62.4,208.2 L61.2,208.3 L60.0,208.3 L58.8,208.3 L57.6,208.2 L56.4,208.0 L55.3,207.7 L54.1,207.3 L53.0,206.9 L51.9,206.4 L50.9,205.8 L49.9,205.2 L48.9,204.5 L48.0,203.7 L47.1,202.9 L46.3,202.0 L45.6,201.0 L45.0,200.1 L44.4,199.0 L43.8,198.0 L43.4,196.9 L43.0,195.8 L42.7,194.6 L42.4,193.5 L42.3,192.3 L42.2,191.2 L42.2,190.0 L42.3,188.8 L42.4,187.7 L42.6,186.5 L42.9,185.4 L43.3,184.3 L43.7,183.2 L44.2,182.2 L44.7,181.2 L45.4,180.2 L46.0,179.3 L46.8,178.4 L47.6,177.6 L48.4,176.8 L49.3,176.0 L50.2,175.4 L51.2,174.8 L52.2,174.2 L53.3,173.7 L54.3,173.3 L55.4,173.0 L56.6,172.7 L57.7,172.5 L58.8,172.3 L60.0,172.3 L61.2,172.3 L62.3,172.4 L63.5,172.5 L64.6,172.8 L65.7,173.1 L66.8,173.5 L67.9,173.9 L69.0,174.5" stroke="#171C12" stroke-width="10"/>
<circle class="f" style="animation-delay:0.64s" cx="40" cy="60" r="9" fill="#171C12"/>
<circle class="f" style="animation-delay:0.68s" cx="390" cy="250" r="10" fill="#171C12"/>
<circle class="f" style="animation-delay:0.71s" cx="220" cy="40" r="7" fill="#171C12"/>
<circle class="f" style="animation-delay:0.75s" cx="120" cy="240" r="8" fill="#171C12"/>
<path class="f" style="animation-delay:0.78s" d="M260.0,232.0 L263.6,246.4 L278.0,250.0 L263.6,253.6 L260.0,268.0 L256.4,253.6 L242.0,250.0 L256.4,246.4 Z" fill="#171C12" stroke="#171C12" stroke-width="3" stroke-linejoin="round"/>
<path class="f" style="animation-delay:0.82s" d="M400.0,26.0 L402.8,37.2 L414.0,40.0 L402.8,42.8 L400.0,54.0 L397.2,42.8 L386.0,40.0 L397.2,37.2 Z" fill="#171C12" stroke="#171C12" stroke-width="3" stroke-linejoin="round"/>
</svg>